# xmcd
#
# Track frame offsets: 
#        150
#        12390
#        25417
#        39332
#        50975
#        61077
#        70112
#        81727
#        100597
#        110680
#        122010
#        131060
#        146105
#        160605
#        180387
#        190900
#        206907
#        222547
#
# Disc length: 3184 seconds
#
# Revision: 6
# Processed by: cddbd v1.5.2PL0 Copyright (c) Steve Scherf et al.
# Submitted via: ExactAudioCopyFreeDBPlugin 1.0
#
DISCID=100c6e12
DTITLE=Lyle Lovett - I Love Everybody
DYEAR=1994
DGENRE=Swing
TTITLE0=Skinny Legs
TTITLE1=Fat Babies
TTITLE2=I Think You Know What I Mean
TTITLE3=Hello, Grandma
TTITLE4=Creeps Like Me
TTITLE5=Sonja
TTITLE6=They Don't Like Me
TTITLE7=Record Lady
TTITLE8=Ain't It Somethin'
TTITLE9=Penguins
TTITLE10=Fat Girl, The
TTITLE11=La To The Left
TTITLE12=Old Friend
TTITLE13=Just The Morning
TTITLE14=Moon On My Shoulder
TTITLE15=I've Got The Blues
TTITLE16=Good-bye To Carolina
TTITLE17=I Love Everybody
EXTD=YEAR: 1994
EXTT0=
EXTT1=
EXTT2=
EXTT3=
EXTT4=
EXTT5=
EXTT6=
EXTT7=
EXTT8=
EXTT9=
EXTT10=
EXTT11=
EXTT12=
EXTT13=
EXTT14=
EXTT15=
EXTT16=
EXTT17=
PLAYORDER=
